<svg width="3056" height="1841" viewBox="0 0 3056 1841" fill="none" xmlns="http://www.w3.org/2000/svg">
<g opacity="0.5">
<g filter="url(#filter0_f)">
<path opacity="0.81" d="M2664.46 438.503L1521.68 663.676L2663.01 422.912L2664.46 438.503Z" fill="#2240CD"/>
<path opacity="0.97" d="M2373.68 65.7793L1368.26 263.594L2372.38 51.8518L2373.68 65.7793Z" fill="#2240CD"/>
<path opacity="0.67" d="M2227.78 359.294L686.156 663.049L2225.8 338.13L2227.78 359.294Z" fill="#2240CD"/>
<path opacity="0.81" d="M2384.8 757.376L1900.96 852.708L2384.18 750.691L2384.8 757.376Z" fill="#2240CD"/>
<path opacity="0.41" d="M2679.57 1120.51L1464.55 1359.91L2678.02 1103.8L2679.57 1120.51Z" fill="#BFC5E2"/>
<path opacity="0.78" d="M2215.03 166.112L594.889 485.641L2213.01 144.407L2215.03 166.112Z" fill="#2240CD"/>
<path opacity="0.75" d="M2659.42 171.387L1226.45 453.457L2657.6 151.899L2659.42 171.387Z" fill="#2240CD"/>
<path opacity="0.22" d="M2648.03 346.038L1183.12 634.681L2646.16 325.99L2648.03 346.038Z" fill="#2240CD"/>
<path opacity="0.71" d="M2022.21 1324.77L1481.49 1431.03L2021.54 1317.53L2022.21 1324.77Z" fill="#BFC5E2"/>
<path opacity="0.25" d="M1655.18 108.015L35.6209 426.862L1653.16 86.3101L1655.18 108.015Z" fill="#2240CD"/>
<path opacity="0.02" d="M1582.47 456.277L1052.6 560.399L1581.8 449.038L1582.47 456.277Z" fill="#2240CD"/>
<path opacity="0.62" d="M2242.94 1114.59L873.23 1384.47L2241.17 1095.65L2242.94 1114.59Z" fill="#BFC5E2"/>
<path opacity="0.11" d="M2043.15 477.476L1409.78 602.003L2042.37 469.132L2043.15 477.476Z" fill="#2240CD"/>
<path opacity="0.09" d="M2789.9 443.675L1183.15 760.557L2787.87 421.964L2789.9 443.675Z" fill="#2240CD"/>
<path opacity="0.05" d="M2693.76 733.333L1382.9 991.628L2692.1 715.516L2693.76 733.333Z" fill="#2240CD"/>
<path opacity="0.79" d="M2265.72 566.177L1279.54 760.497L2264.48 552.816L2265.72 566.177Z" fill="#2240CD"/>
<path opacity="0.71" d="M2426.08 1085.23L1137.55 1339.11L2424.42 1067.4L2426.08 1085.23Z" fill="#BFC5E2"/>
<path opacity="0.53" d="M2402.11 629.091L936.559 917.86L2400.24 609.043L2402.11 629.091Z" fill="#2240CD"/>
<path opacity="0.16" d="M2303.24 429.939L905.422 705.632L2301.43 410.437L2303.24 429.939Z" fill="#2240CD"/>
<path opacity="0.47" d="M2545.37 935.213L978.229 1244.01L2543.4 914.06L2545.37 935.213Z" fill="#BFC5E2"/>
<path opacity="0.5" d="M2394.39 961.591L1700.9 1097.95L2393.51 952.124L2394.39 961.591Z" fill="#BFC5E2"/>
<path opacity="0.58" d="M1662.46 1260.41L1107.06 1369.57L1661.78 1253.18L1662.46 1260.41Z" fill="#BFC5E2"/>
<path opacity="0.73" d="M1743.6 1131.02L978.556 1282.04L1742.61 1120.43L1743.6 1131.02Z" fill="#BFC5E2"/>
<path opacity="0.03" d="M2638.93 1129.07L1263.48 1400.08L2637.16 1110.13L2638.93 1129.07Z" fill="#BFC5E2"/>
<path opacity="0.25" d="M1783.16 1354.07L986.759 1510.99L1782.12 1342.93L1783.16 1354.07Z" fill="#BFC5E2"/>
<path opacity="0.02" d="M3020.95 1109.91L1409.69 1427.12L3018.93 1088.2L3020.95 1109.91Z" fill="#BFC5E2"/>
<path opacity="0.21" d="M2663.55 954.988L1162.81 1250.4L2661.63 934.381L2663.55 954.988Z" fill="#BFC5E2"/>
<path opacity="0.23" d="M1532.14 146.665L983.087 254.838L1531.42 138.859L1532.14 146.665Z" fill="#2240CD"/>
<path opacity="0.3" d="M1443.87 440.542L894.814 548.716L1443.15 432.737L1443.87 440.542Z" fill="#2240CD"/>
<path opacity="0.24" d="M1331.73 107.308L605.011 250.495L1330.79 97.2811L1331.73 107.308Z" fill="#2240CD"/>
<path opacity="0.77" d="M1894.43 1010.92L1372.31 1113.82L1893.81 1004.25L1894.43 1010.92Z" fill="#BFC5E2"/>
<path opacity="0.25" d="M2589.41 701.809L1078.46 999.242L2587.49 681.206L2589.41 701.809Z" fill="#2240CD"/>
<path opacity="0.02" d="M2162.88 1216.23L1531.42 1340.37L2162.11 1207.88L2162.88 1216.23Z" fill="#BFC5E2"/>
<path opacity="0.16" d="M2042.84 1294.75L955.61 1508.69L2041.44 1279.71L2042.84 1294.75Z" fill="#BFC5E2"/>
<path opacity="0.64" d="M2186.26 528.253L757.851 809.725L2184.49 509.337L2186.26 528.253Z" fill="#2240CD"/>
<path opacity="0.46" d="M1758.48 966.767L1325.19 1052.16L1757.96 961.209L1758.48 966.767Z" fill="#BFC5E2"/>
<path opacity="0.48" d="M1398.42 286.928L651.925 434.023L1397.49 276.91L1398.42 286.928Z" fill="#2240CD"/>
<path opacity="0.62" d="M2372.37 919.662L1434.73 1104.13L2371.18 906.854L2372.37 919.662Z" fill="#BFC5E2"/>
<path opacity="0.45" d="M2700.68 298.477L1394.92 555.763L2699.02 280.658L2700.68 298.477Z" fill="#2240CD"/>
<path opacity="0.53" d="M2068.19 258.831L1228.36 424.585L2067.1 247.13L2068.19 258.831Z" fill="#2240CD"/>
<path opacity="0.5" d="M1864.15 836.937L1445.53 919.427L1863.63 831.373L1864.15 836.937Z" fill="#2240CD"/>
<path opacity="0.05" d="M1871.55 381.903L1331.52 488.598L1870.88 374.668L1871.55 381.903Z" fill="#2240CD"/>
<path opacity="0.01" d="M2010.78 853.406L1482.18 957.276L2010.1 846.166L2010.78 853.406Z" fill="#2240CD"/>
<path opacity="0.17" d="M2006.58 1078.31L948.838 1286.46L2005.28 1064.4L2006.58 1078.31Z" fill="#BFC5E2"/>
<path opacity="0.58" d="M1780.5 195.048L548.247 437.853L1778.94 178.346L1780.5 195.048Z" fill="#2240CD"/>
<path opacity="0.89" d="M2144.43 344.456L1667.01 438.257L2143.86 338.343L2144.43 344.456Z" fill="#2240CD"/>
<path opacity="0.91" d="M2549.39 596.959L1586.91 786.901L2548.2 584.162L2549.39 596.959Z" fill="#2240CD"/>
<path opacity="0.17" d="M2222.98 696.477L1674.02 804.937L2222.31 689.246L2222.98 696.477Z" fill="#2240CD"/>
<path opacity="0.49" d="M2045.13 724.17L1089.62 912.168L2043.94 711.37L2045.13 724.17Z" fill="#2240CD"/>
</g>
<g opacity="0.6" filter="url(#filter1_f)">
<path opacity="0.81" d="M2664.46 438.503L1521.68 663.676L2663 422.912L2664.46 438.503Z" fill="#2240CD"/>
<path opacity="0.97" d="M2373.68 65.7793L1368.26 263.594L2372.38 51.8519L2373.68 65.7793Z" fill="#2240CD"/>
<path opacity="0.67" d="M2227.78 359.294L686.156 663.049L2225.8 338.13L2227.78 359.294Z" fill="#2240CD"/>
<path opacity="0.81" d="M2384.8 757.376L1900.96 852.708L2384.18 750.691L2384.8 757.376Z" fill="#2240CD"/>
<path opacity="0.41" d="M2679.58 1120.51L1464.56 1359.91L2678.02 1103.8L2679.58 1120.51Z" fill="#BFC5E2"/>
<path opacity="0.78" d="M2215.03 166.112L594.889 485.641L2213.01 144.407L2215.03 166.112Z" fill="#2240CD"/>
<path opacity="0.75" d="M2659.42 171.387L1226.45 453.457L2657.61 151.899L2659.42 171.387Z" fill="#2240CD"/>
<path opacity="0.22" d="M2648.03 346.038L1183.12 634.681L2646.16 325.99L2648.03 346.038Z" fill="#2240CD"/>
<path opacity="0.71" d="M2022.21 1324.77L1481.49 1431.03L2021.54 1317.53L2022.21 1324.77Z" fill="#BFC5E2"/>
<path opacity="0.25" d="M1655.18 108.016L35.6209 426.863L1653.16 86.3111L1655.18 108.016Z" fill="#2240CD"/>
<path opacity="0.02" d="M1582.47 456.277L1052.6 560.399L1581.8 449.038L1582.47 456.277Z" fill="#2240CD"/>
<path opacity="0.62" d="M2242.94 1114.59L873.23 1384.47L2241.17 1095.65L2242.94 1114.59Z" fill="#BFC5E2"/>
<path opacity="0.11" d="M2043.15 477.476L1409.78 602.003L2042.37 469.132L2043.15 477.476Z" fill="#2240CD"/>
<path opacity="0.09" d="M2789.9 443.675L1183.15 760.557L2787.87 421.964L2789.9 443.675Z" fill="#2240CD"/>
<path opacity="0.05" d="M2693.76 733.333L1382.9 991.628L2692.1 715.516L2693.76 733.333Z" fill="#2240CD"/>
<path opacity="0.79" d="M2265.72 566.177L1279.54 760.497L2264.48 552.816L2265.72 566.177Z" fill="#2240CD"/>
<path opacity="0.71" d="M2426.08 1085.23L1137.55 1339.11L2424.42 1067.4L2426.08 1085.23Z" fill="#BFC5E2"/>
<path opacity="0.53" d="M2402.11 629.091L936.559 917.86L2400.24 609.043L2402.11 629.091Z" fill="#2240CD"/>
<path opacity="0.16" d="M2303.24 429.939L905.422 705.632L2301.43 410.436L2303.24 429.939Z" fill="#2240CD"/>
<path opacity="0.47" d="M2545.37 935.213L978.229 1244.01L2543.4 914.06L2545.37 935.213Z" fill="#BFC5E2"/>
<path opacity="0.5" d="M2394.39 961.591L1700.9 1097.95L2393.51 952.125L2394.39 961.591Z" fill="#BFC5E2"/>
<path opacity="0.58" d="M1662.46 1260.41L1107.06 1369.57L1661.78 1253.18L1662.46 1260.41Z" fill="#BFC5E2"/>
<path opacity="0.73" d="M1743.6 1131.02L978.556 1282.04L1742.61 1120.43L1743.6 1131.02Z" fill="#BFC5E2"/>
<path opacity="0.03" d="M2638.93 1129.07L1263.48 1400.08L2637.16 1110.13L2638.93 1129.07Z" fill="#BFC5E2"/>
<path opacity="0.25" d="M1783.16 1354.07L986.759 1510.99L1782.12 1342.93L1783.16 1354.07Z" fill="#BFC5E2"/>
<path opacity="0.02" d="M3020.95 1109.91L1409.69 1427.12L3018.93 1088.2L3020.95 1109.91Z" fill="#BFC5E2"/>
<path opacity="0.21" d="M2663.55 954.989L1162.81 1250.41L2661.63 934.382L2663.55 954.989Z" fill="#BFC5E2"/>
<path opacity="0.23" d="M1532.14 146.665L983.087 254.838L1531.42 138.859L1532.14 146.665Z" fill="#2240CD"/>
<path opacity="0.3" d="M1443.87 440.543L894.814 548.716L1443.15 432.737L1443.87 440.543Z" fill="#2240CD"/>
<path opacity="0.24" d="M1331.73 107.309L605.011 250.496L1330.79 97.2821L1331.73 107.309Z" fill="#2240CD"/>
<path opacity="0.77" d="M1894.43 1010.92L1372.31 1113.82L1893.81 1004.25L1894.43 1010.92Z" fill="#BFC5E2"/>
<path opacity="0.25" d="M2589.41 701.81L1078.46 999.243L2587.49 681.207L2589.41 701.81Z" fill="#2240CD"/>
<path opacity="0.02" d="M2162.88 1216.23L1531.42 1340.37L2162.11 1207.88L2162.88 1216.23Z" fill="#BFC5E2"/>
<path opacity="0.16" d="M2042.84 1294.75L955.61 1508.69L2041.44 1279.71L2042.84 1294.75Z" fill="#BFC5E2"/>
<path opacity="0.64" d="M2186.26 528.253L757.851 809.725L2184.49 509.337L2186.26 528.253Z" fill="#2240CD"/>
<path opacity="0.46" d="M1758.48 966.767L1325.19 1052.16L1757.96 961.209L1758.48 966.767Z" fill="#BFC5E2"/>
<path opacity="0.48" d="M1398.42 286.928L651.925 434.023L1397.49 276.91L1398.42 286.928Z" fill="#2240CD"/>
<path opacity="0.62" d="M2372.37 919.661L1434.73 1104.13L2371.18 906.854L2372.37 919.661Z" fill="#BFC5E2"/>
<path opacity="0.45" d="M2700.68 298.477L1394.92 555.763L2699.02 280.658L2700.68 298.477Z" fill="#2240CD"/>
<path opacity="0.53" d="M2068.19 258.831L1228.36 424.585L2067.1 247.13L2068.19 258.831Z" fill="#2240CD"/>
<path opacity="0.5" d="M1864.15 836.937L1445.53 919.427L1863.63 831.373L1864.15 836.937Z" fill="#2240CD"/>
<path opacity="0.05" d="M1871.56 381.903L1331.52 488.598L1870.88 374.668L1871.56 381.903Z" fill="#2240CD"/>
<path opacity="0.01" d="M2010.78 853.406L1482.18 957.276L2010.1 846.166L2010.78 853.406Z" fill="#2240CD"/>
<path opacity="0.17" d="M2006.58 1078.3L948.838 1286.46L2005.28 1064.4L2006.58 1078.3Z" fill="#BFC5E2"/>
<path opacity="0.58" d="M1780.5 195.048L548.247 437.853L1778.94 178.346L1780.5 195.048Z" fill="#2240CD"/>
<path opacity="0.89" d="M2144.43 344.457L1667.01 438.257L2143.86 338.343L2144.43 344.457Z" fill="#2240CD"/>
<path opacity="0.91" d="M2549.39 596.959L1586.91 786.901L2548.2 584.162L2549.39 596.959Z" fill="#2240CD"/>
<path opacity="0.17" d="M2222.98 696.478L1674.02 804.937L2222.31 689.246L2222.98 696.478Z" fill="#2240CD"/>
<path opacity="0.49" d="M2045.13 724.17L1089.62 912.168L2043.94 711.37L2045.13 724.17Z" fill="#2240CD"/>
</g>
</g>
<defs>
<filter id="filter0_f" x="0.621094" y="16.8516" width="3055.33" height="1529.13" filterUnits="userSpaceOnUse" color-interpolation-filters="sRGB">
<feFlood flood-opacity="0" result="BackgroundImageFix"/>
<feBlend mode="normal" in="SourceGraphic" in2="BackgroundImageFix" result="shape"/>
<feGaussianBlur stdDeviation="17.5" result="effect1_foregroundBlur"/>
</filter>
<filter id="filter1_f" x="0.621094" y="16.8516" width="3055.33" height="1529.13" filterUnits="userSpaceOnUse" color-interpolation-filters="sRGB">
<feFlood flood-opacity="0" result="BackgroundImageFix"/>
<feBlend mode="normal" in="SourceGraphic" in2="BackgroundImageFix" result="shape"/>
<feGaussianBlur stdDeviation="17.5" result="effect1_foregroundBlur"/>
</filter>
</defs>
</svg>
