<svg width="200" height="200" viewBox="0 0 200 200" fill="none" xmlns="http://www.w3.org/2000/svg">
<rect x="3.5" y="3.5" width="193" height="193" rx="12.7369" fill="white" stroke="#132A97" stroke-width="7"/>
<line x1="7.87012" y1="135.812" x2="192.821" y2="135.813" stroke="#D5DAEF" stroke-width="3"/>
<line x1="35.3984" y1="137.143" x2="35.3984" y2="192" stroke="#D5DAEF" stroke-width="3"/>
<line x1="62.5166" y1="137.143" x2="62.5166" y2="192" stroke="#D5DAEF" stroke-width="3"/>
<line x1="89.6348" y1="137.143" x2="89.6348" y2="192" stroke="#D5DAEF" stroke-width="3"/>
<line x1="116.754" y1="137.143" x2="116.754" y2="192" stroke="#D5DAEF" stroke-width="3"/>
<line x1="143.872" y1="137.143" x2="143.872" y2="192" stroke="#D5DAEF" stroke-width="3"/>
<line x1="170.991" y1="137.143" x2="170.991" y2="192" stroke="#D5DAEF" stroke-width="3"/>
<line x1="7.91016" y1="35.0713" x2="193.221" y2="35.0713" stroke="#D5DAEF" stroke-width="3"/>
<line x1="92.6553" y1="66.9287" x2="193.22" y2="66.9287" stroke="#D5DAEF"/>
<line x1="92.6553" y1="78.3574" x2="193.22" y2="78.3574" stroke="#D5DAEF"/>
<line x1="92.6553" y1="89.7861" x2="193.22" y2="89.7861" stroke="#D5DAEF"/>
<line x1="92.6553" y1="101.214" x2="193.22" y2="101.214" stroke="#D5DAEF"/>
<line x1="7.91113" y1="66.9287" x2="35.0298" y2="66.9287" stroke="#D5DAEF"/>
<line x1="7.91016" y1="78.3574" x2="35.0288" y2="78.3574" stroke="#D5DAEF"/>
<line x1="7.91016" y1="89.7861" x2="35.0288" y2="89.7861" stroke="#D5DAEF"/>
<line x1="7.91016" y1="101.214" x2="35.0288" y2="101.214" stroke="#D5DAEF"/>
<line x1="63.6465" y1="9.14258" x2="63.6465" y2="33.1426" stroke="#D5DAEF" stroke-width="3"/>
<line x1="80.5957" y1="9.14258" x2="80.5957" y2="33.1426" stroke="#D5DAEF" stroke-width="3"/>
<line x1="80.5957" y1="36.5713" x2="80.5957" y2="55.9999" stroke="#D5DAEF" stroke-width="3"/>
<line x1="130.313" y1="67.4287" x2="130.313" y2="101.714" stroke="#D5DAEF" stroke-width="3"/>
<line x1="138.223" y1="67.4287" x2="138.223" y2="101.714" stroke="#D5DAEF" stroke-width="3"/>
<line x1="146.133" y1="67.4287" x2="146.133" y2="101.714" stroke="#D5DAEF" stroke-width="3"/>
<line x1="154.042" y1="67.4287" x2="154.042" y2="101.714" stroke="#D5DAEF" stroke-width="3"/>
<line x1="161.952" y1="67.4287" x2="161.952" y2="101.714" stroke="#D5DAEF" stroke-width="3"/>
<line x1="169.861" y1="67.4287" x2="169.861" y2="101.714" stroke="#D5DAEF" stroke-width="3"/>
<line x1="177.771" y1="67.4287" x2="177.771" y2="101.714" stroke="#D5DAEF" stroke-width="3"/>
<line x1="122.403" y1="67.4287" x2="122.403" y2="101.714" stroke="#D5DAEF" stroke-width="3"/>
<line x1="114.494" y1="67.4287" x2="114.494" y2="101.714" stroke="#D5DAEF" stroke-width="3"/>
<line x1="129.313" y1="36.5713" x2="129.313" y2="133.714" stroke="#D5DAEF"/>
<line x1="137.223" y1="36.5713" x2="137.223" y2="133.714" stroke="#D5DAEF"/>
<line x1="145.133" y1="36.5713" x2="145.133" y2="133.714" stroke="#D5DAEF"/>
<line x1="153.042" y1="36.5713" x2="153.042" y2="133.714" stroke="#D5DAEF"/>
<line x1="160.952" y1="36.5713" x2="160.952" y2="133.714" stroke="#D5DAEF"/>
<line x1="168.861" y1="36.5713" x2="168.861" y2="133.714" stroke="#D5DAEF"/>
<line x1="176.771" y1="36.5713" x2="176.771" y2="133.714" stroke="#D5DAEF"/>
<line x1="121.403" y1="36.5713" x2="121.403" y2="133.714" stroke="#D5DAEF"/>
<line x1="113.494" y1="36.5718" x2="113.494" y2="133.715" stroke="#D5DAEF"/>
<line x1="80.5957" y1="114.286" x2="80.5957" y2="133.715" stroke="#D5DAEF" stroke-width="3"/>
<line x1="46.6982" y1="36.5713" x2="46.6982" y2="55.9999" stroke="#D5DAEF" stroke-width="3"/>
<line x1="46.6982" y1="114.286" x2="46.6982" y2="133.715" stroke="#D5DAEF" stroke-width="3"/>
<line x1="97.5449" y1="9.14258" x2="97.5449" y2="33.1426" stroke="#D5DAEF" stroke-width="3"/>
<line x1="114.494" y1="9.14258" x2="114.494" y2="33.1426" stroke="#D5DAEF" stroke-width="3"/>
<line x1="131.443" y1="9.14258" x2="131.443" y2="33.1426" stroke="#D5DAEF" stroke-width="3"/>
<line x1="148.393" y1="9.14258" x2="148.393" y2="33.1426" stroke="#D5DAEF" stroke-width="3"/>
<line x1="165.342" y1="9.14258" x2="165.342" y2="33.1426" stroke="#D5DAEF" stroke-width="3"/>
<line x1="182.291" y1="9.14258" x2="182.291" y2="33.1426" stroke="#D5DAEF" stroke-width="3"/>
<rect x="36.5283" y="57.5" width="54.6271" height="55.2857" rx="6.5" stroke="#D9DEF1" stroke-width="3"/>
</svg>
